<svg width="26" height="29" viewBox="0 0 26 29" fill="none" xmlns="http://www.w3.org/2000/svg">
<path fill-rule="evenodd" clip-rule="evenodd" d="M17.4479 1.00295C17.3301 0.772823 17.1636 0.569784 16.9593 0.407324C16.755 0.244865 16.5176 0.126705 16.2629 0.0606994C16.0081 -0.00530661 15.7419 -0.0176476 15.482 0.0244962C15.222 0.06664 14.9742 0.162303 14.755 0.305129C14.1143 0.722008 13.6147 1.31651 13.2284 1.90015C12.831 2.49828 12.48 3.19247 12.1699 3.92291C11.5496 5.38018 11.0296 7.12745 10.6099 8.87834C10.1023 11.018 9.72217 13.1846 9.47144 15.3672C8.71582 14.8917 8.10869 14.2227 7.71644 13.4332C7.10729 12.2007 6.97729 10.6528 6.97729 8.62277C6.97721 8.26435 6.86825 7.91399 6.66418 7.616C6.46011 7.318 6.17009 7.08574 5.83079 6.94859C5.4915 6.81144 5.11815 6.77554 4.75795 6.84545C4.39775 6.91535 4.06688 7.08792 3.80715 7.34132C2.59846 8.51844 1.63992 9.91699 0.986574 11.4567C0.333233 12.9963 -0.00203935 14.6468 9.33238e-06 16.3133C0.000163588 18.3997 0.527524 20.4539 1.53538 22.2939C2.54324 24.1339 4.00048 25.703 5.77804 26.862C7.5556 28.0211 9.59861 28.7345 11.7261 28.9389C13.8536 29.1434 16 28.8326 17.975 28.0342C19.9501 27.2357 21.6929 25.9742 23.0491 24.3614C24.4053 22.7485 25.3331 20.8342 25.7502 18.7879C26.1673 16.7415 26.0609 14.6264 25.4404 12.6298C24.8199 10.6332 23.7044 8.81673 22.1929 7.34132C21.0934 6.27013 20.3729 5.55599 19.6894 4.68236C19.0153 3.8196 18.3449 2.75565 17.4479 1.00295ZM16.9371 23.7809C16.158 24.5404 15.1657 25.0575 14.0856 25.2669C13.0055 25.4763 11.886 25.3686 10.8686 24.9575C9.85113 24.5463 8.98135 23.8501 8.36909 22.9568C7.75683 22.0634 7.42955 21.0131 7.42858 19.9383C7.42858 19.9383 9.06101 20.8446 12.0714 20.8446C12.0714 19.0321 13 13.5945 14.3929 12.6883C15.3214 14.5008 15.8526 15.0318 16.939 16.094C17.4572 16.5982 17.8682 17.1974 18.1484 17.8571C18.4285 18.5169 18.5723 19.2242 18.5714 19.9383C18.5723 20.6525 18.4285 21.3598 18.1484 22.0195C17.8682 22.6793 17.4572 23.2785 16.939 23.7827L16.9371 23.7809Z" fill="#EB9F4A"/>
</svg>
